<?xml version="1.0" standalone="no"?>
<!DOCTYPE svg PUBLIC "-//W3C//DTD SVG 20010904//EN"
 "http://www.w3.org/TR/2001/REC-SVG-20010904/DTD/svg10.dtd">
<svg version="1.0" xmlns="http://www.w3.org/2000/svg"
 width="512.000000pt" height="512.000000pt" viewBox="0 0 512.000000 512.000000"
 preserveAspectRatio="xMidYMid meet">
<metadata>
Created by potrace 1.15, written by Peter Selinger 2001-2017
</metadata>
<g transform="translate(0.000000,512.000000) scale(0.100000,-0.100000)"
fill="#000000" stroke="none">
<path d="M0 2560 l0 -2560 2560 0 2560 0 0 2560 0 2560 -2560 0 -2560 0 0
-2560z m4988 1755 c84 -36 126 -106 120 -201 -3 -52 -9 -70 -34 -101 -17 -21
-48 -48 -70 -60 l-39 -23 -2405 0 -2405 0 -39 23 c-22 12 -53 39 -70 60 -41
51 -49 143 -17 205 21 42 67 83 111 101 16 6 870 10 2418 10 2138 1 2397 -1
2430 -14z m0 -1570 c163 -69 163 -301 0 -370 -33 -13 -293 -15 -2428 -15
-2135 0 -2395 2 -2428 15 -162 68 -164 299 -2 369 31 13 313 15 2428 16 2138
0 2397 -2 2430 -15z m16 -1578 c22 -12 53 -39 70 -60 26 -33 31 -48 34 -105 3
-82 -20 -130 -86 -177 l-44 -30 -2418 0 -2418 0 -44 30 c-66 47 -89 95 -86
177 3 57 8 72 34 105 17 21 48 48 70 60 l39 23 2405 0 2405 0 39 -23z"/>
</g>
</svg>
